{
  "asset": {
    "generator": "Khronos glTF Blender I/O v1.6.16",
    "version": "2.0"
  },
  "scene": 0,
  "scenes": [
    {
      "name": "Scene",
      "nodes": [
        0
      ]
    }
  ],
  "nodes": [
    {
      "mesh": 0,
      "name": "sphere_gltf"
    }
  ],
  "materials": [
    {
      "doubleSided": true,
      "name": "yellow_brick",
      "normalTexture": {
        "index": 0
      },
      "pbrMetallicRoughness": {
        "baseColorTexture": {
          "index": 1
        },
        "metallicFactor": 0,
        "metallicRoughnessTexture": {
          "index": 2
        }
      }
    }
  ],
  "meshes": [
    {
      "name": "Sphere.001",
      "primitives": [
        {
          "attributes": {
            "POSITION": 0,
            "NORMAL": 1,
            "TEXCOORD_0": 2
          },
          "indices": 3,
          "material": 0
        }
      ]
    }
  ],
  "textures": [
    {
      "sampler": 0,
      "source": 0
    },
    {
      "sampler": 0,
      "source": 1
    },
    {
      "sampler": 0,
      "source": 2
    }
  ],
  "images": [
    {
      "mimeType": "image/jpeg",
      "name": "yellow_brick_nor_gl_4k",
      "uri": "textures/yellow_brick_nor_gl_4k.jpg"
    },
    {
      "mimeType": "image/jpeg",
      "name": "yellow_brick_diff_4k",
      "uri": "textures/yellow_brick_diff_4k.jpg"
    },
    {
      "mimeType": "image/jpeg",
      "name": "yellow_brick_rough_4k",
      "uri": "textures/yellow_brick_rough_4k.jpg"
    }
  ],
  "accessors": [
    {
      "bufferView": 0,
      "componentType": 5126,
      "count": 53941,
      "max": [
        1.0016487836837769,
        1.0105319023132324,
        1.0047041177749634
      ],
      "min": [
        -1.001649022102356,
        -1.0099281072616577,
        -1.0047173500061035
      ],
      "type": "VEC3"
    },
    {
      "bufferView": 1,
      "componentType": 5126,
      "count": 53941,
      "type": "VEC3"
    },
    {
      "bufferView": 2,
      "componentType": 5126,
      "count": 53941,
      "type": "VEC2"
    },
    {
      "bufferView": 3,
      "componentType": 5123,
      "count": 322170,
      "type": "SCALAR"
    }
  ],
  "bufferViews": [
    {
      "buffer": 0,
      "byteLength": 647292,
      "byteOffset": 0
    },
    {
      "buffer": 0,
      "byteLength": 647292,
      "byteOffset": 647292
    },
    {
      "buffer": 0,
      "byteLength": 431528,
      "byteOffset": 1294584
    },
    {
      "buffer": 0,
      "byteLength": 644340,
      "byteOffset": 1726112
    }
  ],
  "samplers": [
    {
      "magFilter": 9729,
      "minFilter": 9987
    }
  ],
  "buffers": [
    {
      "byteLength": 2370452,
      "uri": "yellow_brick.bin"
    }
  ]
}